<?xml version="1.0" encoding="UTF-8" standalone="no"?><!DOCTYPE svg PUBLIC "-//W3C//DTD SVG 1.1//EN" "http://www.w3.org/Graphics/SVG/1.1/DTD/svg11.dtd"><svg width="100%" height="100%" viewBox="0 0 185 201" version="1.1" xmlns="http://www.w3.org/2000/svg" xmlns:xlink="http://www.w3.org/1999/xlink" xml:space="preserve" xmlns:serif="http://www.serif.com/" style="fill-rule:evenodd;clip-rule:evenodd;stroke-linejoin:round;stroke-miterlimit:1.41421;"><path id="path841" d="M144.73,43.948c0,-10.436 -4.729,-20.037 -12.806,-26.331c4.72,-4.523 11.52,-17.617 11.52,-17.617c0,0 -19.924,10.194 -29.887,8.992c-4.82,-0.582 -10.9,-2.698 -17.046,-3.01c-1.352,-0.069 -2.706,-0.091 -4.051,-0.05c-1.426,0.044 -2.842,0.151 -4.236,0.295c-6.448,0.665 -12.428,2.981 -16.766,2.765c-11.744,-0.585 -29.887,-8.992 -29.887,-8.992c0,0 6.799,13.094 11.52,17.617c-8.077,6.294 -12.806,15.894 -12.806,26.331c0,9.274 3.785,17.675 9.882,23.727c2.269,2.252 7.058,5.635 15.357,7.675c7.264,1.785 17.472,2.404 27.638,2.145c9.37,-0.239 18.744,-0.583 25.871,-2.286c8.27,-1.976 13.718,-5.453 15.814,-7.534c6.098,-6.051 9.883,-14.453 9.883,-23.727Zm-5.577,0c0,15.3 -11.922,26.468 -27.139,26.468c-4.917,0 -10.134,-0.019 -14.337,-2.485l1.629,-5.837c3.495,2.394 7.713,3.795 12.251,3.795c12.031,0 19.179,-9.843 19.179,-21.941c0,-7.628 -1.322,-14.616 -7.571,-18.575c1.538,-1.27 3.068,-2.573 4.572,-3.903c7.184,5.217 11.416,13.473 11.416,22.478Zm-72.584,-14.794c3.958,1.83 7.3,3.667 10.186,5.668c3.847,2.667 11.158,9.27 12.897,10.339c-0.62,8.441 -7.644,15.12 -16.195,15.12c-8.957,0 -16.244,-7.327 -16.244,-16.333c0.001,-6.364 3.705,-12.129 9.356,-14.794Zm40.112,5.472c3.847,-2.668 7.992,-3.827 11.764,-5.471c5.651,2.664 9.355,8.43 9.355,14.794c0,9.006 -7.286,16.333 -16.243,16.333c-8.551,0 -15.574,-6.679 -16.195,-15.12c1.739,-1.069 8.097,-8.303 11.319,-10.536Zm-14.174,21.791l3.056,2.603l-3.212,10.695l-3.003,-10.748l3.159,-2.55Zm-35.547,-42.85c5.275,1.984 29.1,-3.08 34.154,-3.048c0.453,0.003 2.333,0.003 2.787,0c5.048,-0.032 28.877,5.033 34.154,3.047c-13.125,12.536 -30.52,23.656 -35.548,26.773c-5.027,-3.117 -22.422,-14.237 -35.547,-26.772Zm-11.098,30.381c0,-9.005 4.232,-17.262 11.416,-22.48c1.503,1.332 3.033,2.634 4.571,3.904c-6.249,3.96 -7.71,11.017 -7.71,18.646c0,12.097 7.287,21.87 19.319,21.87c4.538,0 8.755,-1.401 12.25,-3.794l1.629,5.837c-4.203,2.466 -8.962,3.764 -13.879,3.764c-15.217,0 -27.596,-12.447 -27.596,-27.747Z" style="fill:#535c68;fill-rule:nonzero;"/><g><path d="M132.313,50.766c-0.745,3.223 -2.989,5.863 -5.95,6.667l-11.354,3.082c-1.107,0.301 -2.24,0.45 -3.371,0.45c-2.075,0 -4.147,-0.501 -6.049,-1.483l-10.851,-5.602c-1.422,-0.734 -2.987,-0.734 -4.409,0l-10.852,5.602c-2.938,1.518 -6.284,1.885 -9.42,1.033l-11.353,-3.082c-2.962,-0.804 -5.205,-3.444 -5.951,-6.667l-0.233,2.837c-0.375,4.567 2.284,8.809 6.184,9.868l11.353,3.082c3.136,0.852 6.482,0.485 9.42,-1.033l10.852,-5.602c1.422,-0.734 2.987,-0.734 4.409,0l10.851,5.602c1.902,0.982 3.974,1.482 6.05,1.482c1.131,0 2.263,-0.149 3.37,-0.449l11.354,-3.082c3.9,-1.059 6.558,-5.301 6.183,-9.868l-0.233,-2.837Z" style="fill:#70a1ff;fill-rule:nonzero;"/><path d="M132.546,53.603c0.375,4.567 -2.283,8.809 -6.183,9.868l-11.354,3.082c-1.107,0.3 -2.239,0.449 -3.37,0.449c-2.076,0 -4.148,-0.499 -6.05,-1.481l-10.851,-5.603c-1.422,-0.733 -2.987,-0.734 -4.409,0l-10.852,5.603c-2.938,1.517 -6.284,1.884 -9.42,1.033l-11.353,-3.083c-3.9,-1.059 -6.559,-5.301 -6.184,-9.868l1.61,-19.603c0.283,-3.444 2.198,-6.348 4.998,-7.578c14.66,-6.438 33.013,-6.492 33.787,-6.487c0.738,0 18.357,0.049 33.02,6.485c2.802,1.231 4.718,4.135 5.001,7.58l1.61,19.603Zm-20.37,-18.471c-4.665,0 -8.46,3.741 -8.46,8.339c0,4.598 3.795,8.34 8.46,8.34c4.665,0 8.461,-3.742 8.461,-8.34c0,-4.598 -3.796,-8.339 -8.461,-8.339Zm-38.517,0c-4.665,0 -8.46,3.741 -8.46,8.339c0,4.598 3.795,8.34 8.46,8.34c4.665,0 8.461,-3.742 8.461,-8.34c0,-4.598 -3.796,-8.339 -8.461,-8.339Z" style="fill:#70a1ff;fill-rule:nonzero;"/></g><path id="path1016" d="M88.677,76.699c-0.346,0.088 -35.677,-7.246 -35.641,-6.534c1.431,28.582 32.732,62.52 34.047,63.678c1.064,0.937 2.393,1.406 3.724,1.406c1.33,0 2.659,-0.469 3.723,-1.406c1.349,-1.187 35.486,-33.559 35.486,-62.826c0,-1.033 -36.857,6.09 -38.453,5.852l-2.886,-0.17Zm3.659,1.122c5.759,0 10.434,4.675 10.434,10.434c0,5.759 -4.675,10.434 -10.434,10.434c-5.758,0 -10.433,-4.675 -10.433,-10.434c0,-5.759 4.675,-10.434 10.433,-10.434Z" style="fill:#535c68;fill-rule:nonzero;"/><path d="M123.328,103.424c7.012,0.014 12.777,0.045 16.052,0.099c2.65,0.044 5.327,0.309 7.768,1.488c2.441,1.18 5.413,3.556 6.914,6.1c1.897,3.213 5.502,9.746 9.571,17.234c7.2,13.25 15.851,29.49 19.052,35.621c0.773,1.482 2.306,3.821 1.438,4.723c-0.869,0.903 -4.418,0.686 -6.65,0.694c-12.867,0.046 -48.777,0.023 -82.813,-0.015c-35.909,0.038 -73.795,0.061 -87.371,0.015c-2.355,-0.008 -6.099,0.209 -7.016,-0.694c-0.916,-0.902 0.701,-3.241 1.517,-4.723c5.286,-9.596 24.657,-43.956 30.198,-52.855c1.585,-2.544 4.72,-4.92 7.295,-6.1c2.576,-1.179 5.399,-1.444 8.195,-1.488c2.592,-0.041 6.66,-0.068 11.652,-0.085c9.636,20.138 27.19,35.783 28.212,36.683c1.111,0.977 2.497,1.466 3.884,1.466c1.387,0 2.774,-0.489 3.884,-1.466c1.017,-0.896 18.582,-16.549 28.218,-36.697Zm-53.619,60.134c-0.554,-0.19 -0.286,-2.532 0.262,-2.37c1.81,0.536 7.13,0.766 8.565,0.551c0.565,-0.084 0.31,2.037 -0.249,2.157c-1.506,0.325 -7.14,0.155 -8.578,-0.338Zm-14.321,-2.377c-0.508,-0.292 0.203,-2.54 0.71,-2.276c1.674,0.871 6.852,2.113 8.302,2.176c0.571,0.025 -0.085,2.058 -0.657,2.07c-1.54,0.031 -7.038,-1.212 -8.355,-1.97Zm29.174,1.497c-0.585,-0.039 -0.937,-2.37 -0.365,-2.356c1.886,0.045 7.083,-1.12 8.412,-1.701c0.524,-0.23 0.83,1.885 0.322,2.147c-1.369,0.706 -6.853,2.011 -8.369,1.91Zm81.264,-9.422l-1.814,1.321l-2.213,1.708l4.052,4.109c0.207,0.206 0.311,0.408 0.311,0.608c0,0.25 -0.124,0.472 -0.373,0.665c-0.249,0.193 -0.53,0.29 -0.845,0.29c-0.315,0 -0.601,-0.119 -0.858,-0.357c-0.762,-0.688 -2.104,-2.013 -4.027,-3.974l-2.423,1.938c-0.489,0.341 -1.202,0.872 -2.138,1.592c-0.265,0.232 -0.551,0.347 -0.857,0.347c-0.315,0 -0.595,-0.096 -0.839,-0.289c-0.245,-0.193 -0.367,-0.415 -0.367,-0.666c0,-0.199 0.104,-0.402 0.311,-0.607c0.232,-0.238 0.592,-0.524 1.081,-0.859c0.572,-0.392 0.949,-0.662 1.131,-0.81l2.647,-2.151l-1.628,-1.823c-0.654,-0.727 -1.226,-1.257 -1.715,-1.592c-0.315,-0.219 -0.472,-0.456 -0.472,-0.714c0,-0.257 0.118,-0.485 0.354,-0.685c0.236,-0.199 0.507,-0.299 0.814,-0.299c0.489,0 1.226,0.496 2.212,1.486l2.15,2.305l2.436,-1.736c1.011,-0.74 1.695,-1.318 2.051,-1.736c0.265,-0.303 0.58,-0.454 0.945,-0.454c0.323,0 0.609,0.094 0.857,0.28c0.249,0.187 0.373,0.402 0.373,0.646c0,0.354 -0.385,0.84 -1.156,1.457Zm-123.88,4.572c-0.498,-0.309 0.289,-2.532 0.786,-2.251c1.644,0.928 6.777,2.344 8.224,2.456c0.57,0.044 -0.154,2.054 -0.726,2.046c-1.54,-0.021 -6.993,-1.449 -8.284,-2.251Zm56.886,0.672c-0.584,0.055 -1.302,-2.191 -0.736,-2.268c1.87,-0.255 6.815,-2.231 8.035,-3.017c0.481,-0.31 1.12,1.729 0.659,2.069c-1.239,0.914 -6.446,3.075 -7.958,3.216Zm-70.323,-5.293c-0.459,-0.363 0.573,-2.483 1.036,-2.147c1.528,1.107 6.469,3.094 7.894,3.368c0.561,0.109 -0.385,2.024 -0.953,1.952c-1.528,-0.195 -6.785,-2.23 -7.977,-3.173Zm115.335,-2.016c-0.401,-0.428 0.936,-2.37 1.343,-1.97c1.347,1.323 5.936,4.024 7.304,4.508c0.539,0.19 -0.682,1.943 -1.233,1.787c-1.481,-0.42 -6.377,-3.215 -7.414,-4.325Zm-32.255,1.744c-0.572,0.129 -1.57,-2.008 -1.018,-2.156c1.822,-0.491 6.476,-3.08 7.586,-4.015c0.437,-0.368 1.33,1.573 0.917,1.969c-1.113,1.064 -6.003,3.869 -7.485,4.202Zm-95.761,-6.713c-0.396,-0.433 0.964,-2.359 1.367,-1.953c1.33,1.339 5.887,4.094 7.249,4.594c0.537,0.197 -0.705,1.936 -1.254,1.773c-1.476,-0.438 -6.338,-3.292 -7.362,-4.414Zm118.679,-2.856c-0.314,-0.495 1.36,-2.156 1.687,-1.686c1.077,1.549 5.085,5.055 6.34,5.785c0.494,0.287 -1.032,1.783 -1.544,1.527c-1.377,-0.688 -5.669,-4.343 -6.483,-5.626Zm-10.127,2.964c-0.564,0.159 -1.675,-1.921 -1.131,-2.099c1.793,-0.587 6.302,-3.421 7.36,-4.413c0.417,-0.391 1.413,1.499 1.021,1.917c-1.055,1.122 -5.788,4.184 -7.25,4.595Zm12.885,-7.711c-0.52,0.27 -2.03,-1.541 -1.534,-1.825c1.636,-0.94 5.475,-4.631 6.31,-5.818c0.328,-0.468 1.687,1.181 1.388,1.669c-0.804,1.313 -4.815,5.274 -6.164,5.974Zm-14.529,-7.878c-0.118,-0.59 1.99,-1.875 2.023,-1.263c0.106,2.006 3.238,6.321 4.874,7.064c0.556,0.253 -1.333,1.434 -1.848,1.141c-1.414,-0.805 -4.733,-5.362 -5.049,-6.942Zm22.954,-3.167c-0.07,0.582 -2.417,0.807 -2.372,0.237c0.147,-1.881 -0.736,-7.133 -1.245,-8.492c-0.2,-0.535 1.927,-0.727 2.162,-0.205c0.631,1.405 1.638,6.951 1.455,8.46Zm-19.979,-10.961c0.429,-0.202 2.51,1.727 1.976,1.957c-1.703,0.734 -4.042,5.441 -3.593,7.858c0.111,0.596 -1.86,-0.221 -2.012,-0.817c-0.433,-1.702 1.807,-8.138 3.629,-8.998Zm13.792,-1.582c0.522,0.295 0.114,2.608 -0.407,2.349c-1.789,-0.887 -7.086,-1.461 -8.515,-1.076c-0.568,0.153 -0.182,-1.982 0.382,-2.137c1.56,-0.429 7.173,0.09 8.54,0.864Z" style="fill:#535c68;"/><g transform="matrix(0.75,0,0,0.75,-417.446,-335.027)"><text x="558.262px" y="713.475px" style="font-family:'Lato-Bold', 'Lato', sans-serif;font-weight:700;font-size:48px;fill:#70a1ff;">V<tspan x="599.758px " y="713.475px ">R</tspan></text><text x="638.302px" y="713.475px" style="font-family:'Lato-Bold', 'Lato', sans-serif;font-weight:700;font-size:48px;fill:#535c68;">O<tspan x="684.526px 743.134px 771.67px " y="713.475px 713.475px 713.475px ">WLY</tspan></text></g></svg>